<svg xmlns="http://www.w3.org/2000/svg" xmlns:xlink="http://www.w3.org/1999/xlink" version="1.1" data-diagram-type="ACTIVITY" style="width:881px;height:1879px;background:#FFFFFF;" width="881.25px" height="1879.688px" viewBox="0 0 881 1879" zoomAndPan="magnify" preserveAspectRatio="none" contentStyleType="text/css"><?plantuml 1.2026.8?><defs/><g font-family="sans-serif" lengthAdjust="spacing"><rect x="31.25" y="26.192" width="787.402" height="27.017" fill="none" style="stroke:none;"/><ellipse cx="251.368" cy="76.646" rx="15.625" ry="15.625" fill="#222" style="stroke:#222;stroke-width:1.563;"/><rect x="136.714" y="123.521" width="229.307" height="58.267" fill="#F4EEF9" style="stroke:#5B2C83;stroke-width:0.781;" rx="19.531" ry="19.531"/><text x="152.339" y="161.066" fill="#000" font-size="20.313" textLength="198.057" font-family="'Leelawadee UI'">ได้รับการแจ้งเตือนงานใหม่</text><rect x="149.008" y="213.039" width="204.72" height="85.284" fill="#F4EEF9" style="stroke:#5B2C83;stroke-width:0.781;" rx="19.531" ry="19.531"/><text x="164.633" y="250.583" fill="#000" font-size="20.313" textLength="168.838" font-family="'Leelawadee UI'">เปิดรายการ "งานใหม่"</text><text x="164.633" y="277.6" fill="#000" font-size="20.313" textLength="173.47" font-family="'Leelawadee UI'">ที่เรียงตามความเร่งด่วน</text><rect x="128.983" y="329.573" width="244.769" height="58.267" fill="#F4EEF9" style="stroke:#5B2C83;stroke-width:0.781;" rx="19.531" ry="19.531"/><text x="144.608" y="367.117" fill="#000" font-size="20.313" textLength="213.519" font-family="'Leelawadee UI'">ดูรายละเอียดและรูปก่อนซ่อม</text><rect x="188.601" y="419.09" width="125.533" height="58.267" fill="#F4EEF9" style="stroke:#5B2C83;stroke-width:0.781;" rx="19.531" ry="19.531"/><text x="204.226" y="456.635" fill="#000" font-size="20.313" textLength="94.283" font-family="'Leelawadee UI'">กด "รับงาน"</text><rect x="118.127" y="691.138" width="266.48" height="58.267" fill="#F4EEF9" style="stroke:#5B2C83;stroke-width:0.781;" rx="19.531" ry="19.531"/><text x="133.752" y="728.682" fill="#000" font-size="20.313" textLength="235.23" font-family="'Leelawadee UI'">กด "รออะไหล่" พร้อมหมายเหตุ</text><rect x="98.603" y="874.632" width="305.528" height="58.267" fill="#F4EEF9" style="stroke:#5B2C83;stroke-width:0.781;" rx="19.531" ry="19.531"/><text x="114.228" y="912.177" fill="#000" font-size="20.313" textLength="274.278" font-family="'Leelawadee UI'">ได้รับอะไหล่แล้วกด "กลับไปซ่อมต่อ"</text><polygon points="176.688,598.125,326.047,598.125,344.797,616.875,326.047,635.625,176.688,635.625,157.938,616.875,176.688,598.125" fill="#FFF4D6" style="stroke:#B7791F;stroke-width:0.781;stroke-linejoin:miter;stroke-miterlimit:10;"/><text x="257.618" y="657.544" fill="#000" font-size="20.313" textLength="49.74" font-family="'Leelawadee UI'">ต้องรอ</text><text x="176.688" y="625.285" fill="#000" font-size="20.313" textLength="149.358" font-family="'Leelawadee UI'">ต้องรออะไหล่หรือไม่</text><text x="88.699" y="611.777" fill="#000" font-size="20.313" textLength="69.239" font-family="'Leelawadee UI'">ไม่ต้องรอ</text><rect x="163.389" y="1156.792" width="175.957" height="58.267" fill="#F4EEF9" style="stroke:#5B2C83;stroke-width:0.781;" rx="19.531" ry="19.531"/><text x="179.014" y="1194.336" fill="#000" font-size="20.313" textLength="144.707" font-family="'Leelawadee UI'">กด "ซ่อมเสร็จแล้ว"</text><rect x="135.241" y="1246.309" width="232.253" height="85.284" fill="#F4EEF9" style="stroke:#5B2C83;stroke-width:0.781;" rx="19.531" ry="19.531"/><text x="150.866" y="1283.853" fill="#000" font-size="20.313" textLength="201.003" font-family="'Leelawadee UI'">แนบรูปหลังซ่อม ระบุสาเหตุ</text><text x="150.866" y="1310.87" fill="#000" font-size="20.313" textLength="108.535" font-family="'Leelawadee UI'">และอะไหล่ที่ใช้</text><polygon points="251.368,1088.042,270.118,1106.792,251.368,1125.542,232.618,1106.792,251.368,1088.042" fill="#FFF4D6" style="stroke:#B7791F;stroke-width:0.781;stroke-linejoin:miter;stroke-miterlimit:10;"/><polygon points="170.792,1452.361,331.943,1452.361,350.693,1471.111,331.943,1489.861,170.792,1489.861,152.042,1471.111,170.792,1452.361" fill="#FFF4D6" style="stroke:#B7791F;stroke-width:0.781;stroke-linejoin:miter;stroke-miterlimit:10;"/><text x="257.618" y="1511.78" fill="#000" font-size="20.313" textLength="64.905" font-family="'Leelawadee UI'">ครบถ้วน</text><text x="170.792" y="1479.521" fill="#000" font-size="20.313" textLength="161.151" font-family="'Leelawadee UI'">ข้อมูลครบถ้วนหรือไม่</text><text x="350.693" y="1466.013" fill="#000" font-size="20.313" textLength="84.404" font-family="'Leelawadee UI'">ไม่ครบถ้วน</text><line x1="31.25" y1="26.192" x2="31.25" y2="1847.475" style="stroke:#9A86AE;stroke-width:2.344;"/><rect x="452.285" y="508.607" width="358.898" height="58.267" fill="#F4EEF9" style="stroke:#5B2C83;stroke-width:0.781;" rx="19.531" ry="19.531"/><text x="467.91" y="546.152" fill="#000" font-size="20.313" textLength="327.648" font-family="'Leelawadee UI'">เปลี่ยนสถานะเป็น "กำลังซ่อม" และแจ้งผู้แจ้ง</text><rect x="455.32" y="780.655" width="352.828" height="58.267" fill="#F4EEF9" style="stroke:#5B2C83;stroke-width:0.781;" rx="19.531" ry="19.531"/><text x="470.945" y="818.199" fill="#000" font-size="20.313" textLength="321.578" font-family="'Leelawadee UI'">เปลี่ยนสถานะเป็น "รออะไหล่" และแจ้งผู้แจ้ง</text><rect x="485.942" y="964.149" width="291.583" height="58.267" fill="#F4EEF9" style="stroke:#5B2C83;stroke-width:0.781;" rx="19.531" ry="19.531"/><text x="501.567" y="1001.694" fill="#000" font-size="20.313" textLength="260.333" font-family="'Leelawadee UI'">เปลี่ยนสถานะกลับเป็น "กำลังซ่อม"</text><rect x="488.179" y="1362.843" width="287.11" height="58.267" fill="#F4EEF9" style="stroke:#5B2C83;stroke-width:0.781;" rx="19.531" ry="19.531"/><text x="503.804" y="1400.388" fill="#000" font-size="20.313" textLength="255.86" font-family="'Leelawadee UI'">ตรวจสอบความครบถ้วนของข้อมูล</text><rect x="492.25" y="1544.548" width="278.967" height="58.267" fill="#F4EEF9" style="stroke:#5B2C83;stroke-width:0.781;" rx="19.531" ry="19.531"/><text x="507.875" y="1582.092" fill="#000" font-size="20.313" textLength="247.717" font-family="'Leelawadee UI'">บันทึกผลการซ่อมและรูปหลังซ่อม</text><rect x="469.979" y="1634.065" width="323.51" height="58.267" fill="#F4EEF9" style="stroke:#5B2C83;stroke-width:0.781;" rx="19.531" ry="19.531"/><text x="485.604" y="1671.609" fill="#000" font-size="20.313" textLength="292.26" font-family="'Leelawadee UI'">เปลี่ยนสถานะเป็น "ซ่อมเสร็จ รอยืนยัน"</text><rect x="476.138" y="1723.582" width="311.192" height="58.267" fill="#F4EEF9" style="stroke:#5B2C83;stroke-width:0.781;" rx="19.531" ry="19.531"/><text x="491.763" y="1761.127" fill="#000" font-size="20.313" textLength="279.942" font-family="'Leelawadee UI'">แจ้งผู้แจ้งและผู้ติดตามให้ตรวจสอบผล</text><ellipse cx="631.734" cy="1830.287" rx="17.188" ry="17.188" fill="none" style="stroke:#222;stroke-width:1.563;"/><ellipse cx="631.734" cy="1830.287" rx="9.375" ry="9.375" fill="#222" style="stroke:#222;stroke-width:1.563;"/><line x1="442.91" y1="26.192" x2="442.91" y2="1847.475" style="stroke:#9A86AE;stroke-width:2.344;"/><line x1="817.433" y1="26.192" x2="817.433" y2="1847.475" style="stroke:#9A86AE;stroke-width:2.344;"/><polygon points="820.648,840.257,826.898,824.632,833.148,840.257,826.898,834.007" fill="#444" style="stroke:#444;stroke-width:1.563;stroke-linejoin:miter;stroke-miterlimit:10;"/><line x1="251.368" y1="92.271" x2="251.368" y2="123.521" style="stroke:#444;stroke-width:1.563;"/><polygon points="245.118,107.896,251.368,123.521,257.618,107.896,251.368,114.146" fill="#444" style="stroke:#444;stroke-width:1.563;stroke-linejoin:miter;stroke-miterlimit:10;"/><line x1="251.368" y1="181.789" x2="251.368" y2="213.039" style="stroke:#444;stroke-width:1.563;"/><polygon points="245.118,197.414,251.368,213.039,257.618,197.414,251.368,203.664" fill="#444" style="stroke:#444;stroke-width:1.563;stroke-linejoin:miter;stroke-miterlimit:10;"/><line x1="251.368" y1="298.323" x2="251.368" y2="329.573" style="stroke:#444;stroke-width:1.563;"/><polygon points="245.118,313.948,251.368,329.573,257.618,313.948,251.368,320.198" fill="#444" style="stroke:#444;stroke-width:1.563;stroke-linejoin:miter;stroke-miterlimit:10;"/><line x1="251.368" y1="387.84" x2="251.368" y2="419.09" style="stroke:#444;stroke-width:1.563;"/><polygon points="245.118,403.465,251.368,419.09,257.618,403.465,251.368,409.715" fill="#444" style="stroke:#444;stroke-width:1.563;stroke-linejoin:miter;stroke-miterlimit:10;"/><line x1="251.368" y1="635.625" x2="251.368" y2="691.138" style="stroke:#444;stroke-width:1.563;"/><polygon points="245.118,675.513,251.368,691.138,257.618,675.513,251.368,681.763" fill="#444" style="stroke:#444;stroke-width:1.563;stroke-linejoin:miter;stroke-miterlimit:10;"/><line x1="157.938" y1="616.875" x2="60.938" y2="616.875" style="stroke:#444;stroke-width:1.563;"/><polygon points="54.688,827.757,60.938,843.382,67.188,827.757,60.938,834.007" fill="#444" style="stroke:#444;stroke-width:1.563;stroke-linejoin:miter;stroke-miterlimit:10;"/><line x1="60.938" y1="616.875" x2="60.938" y2="1056.792" style="stroke:#444;stroke-width:1.563;"/><line x1="60.938" y1="1056.792" x2="251.368" y2="1056.792" style="stroke:#444;stroke-width:1.563;"/><line x1="251.368" y1="1056.792" x2="251.368" y2="1088.042" style="stroke:#444;stroke-width:1.563;"/><polygon points="245.118,1072.417,251.368,1088.042,257.618,1072.417,251.368,1078.667" fill="#444" style="stroke:#444;stroke-width:1.563;stroke-linejoin:miter;stroke-miterlimit:10;"/><line x1="251.368" y1="1215.059" x2="251.368" y2="1246.309" style="stroke:#444;stroke-width:1.563;"/><polygon points="245.118,1230.684,251.368,1246.309,257.618,1230.684,251.368,1236.934" fill="#444" style="stroke:#444;stroke-width:1.563;stroke-linejoin:miter;stroke-miterlimit:10;"/><line x1="251.368" y1="1125.542" x2="251.368" y2="1156.792" style="stroke:#444;stroke-width:1.563;"/><polygon points="245.118,1141.167,251.368,1156.792,257.618,1141.167,251.368,1147.417" fill="#444" style="stroke:#444;stroke-width:1.563;stroke-linejoin:miter;stroke-miterlimit:10;"/><line x1="152.042" y1="1471.111" x2="89.063" y2="1471.111" style="stroke:#444;stroke-width:1.563;"/><polygon points="82.813,1304.576,89.063,1288.951,95.313,1304.576,89.063,1298.326" fill="#444" style="stroke:#444;stroke-width:1.563;stroke-linejoin:miter;stroke-miterlimit:10;"/><line x1="89.063" y1="1106.792" x2="89.063" y2="1471.111" style="stroke:#444;stroke-width:1.563;"/><line x1="89.063" y1="1106.792" x2="232.618" y2="1106.792" style="stroke:#444;stroke-width:1.563;"/><polygon points="216.993,1100.542,232.618,1106.792,216.993,1113.042,223.243,1106.792" fill="#444" style="stroke:#444;stroke-width:1.563;stroke-linejoin:miter;stroke-miterlimit:10;"/><line x1="631.734" y1="1602.815" x2="631.734" y2="1634.065" style="stroke:#444;stroke-width:1.563;"/><polygon points="625.484,1618.44,631.734,1634.065,637.984,1618.44,631.734,1624.69" fill="#444" style="stroke:#444;stroke-width:1.563;stroke-linejoin:miter;stroke-miterlimit:10;"/><line x1="631.734" y1="1692.332" x2="631.734" y2="1723.582" style="stroke:#444;stroke-width:1.563;"/><polygon points="625.484,1707.957,631.734,1723.582,637.984,1707.957,631.734,1714.207" fill="#444" style="stroke:#444;stroke-width:1.563;stroke-linejoin:miter;stroke-miterlimit:10;"/><line x1="631.734" y1="1781.85" x2="631.734" y2="1813.1" style="stroke:#444;stroke-width:1.563;"/><polygon points="625.484,1797.475,631.734,1813.1,637.984,1797.475,631.734,1803.725" fill="#444" style="stroke:#444;stroke-width:1.563;stroke-linejoin:miter;stroke-miterlimit:10;"/><line x1="251.368" y1="477.357" x2="251.368" y2="485.17" style="stroke:#444;stroke-width:1.563;"/><line x1="251.368" y1="485.17" x2="631.734" y2="485.17" style="stroke:#444;stroke-width:1.563;"/><line x1="631.734" y1="485.17" x2="631.734" y2="508.607" style="stroke:#444;stroke-width:1.563;"/><polygon points="625.484,492.982,631.734,508.607,637.984,492.982,631.734,499.232" fill="#444" style="stroke:#444;stroke-width:1.563;stroke-linejoin:miter;stroke-miterlimit:10;"/><line x1="251.368" y1="749.405" x2="251.368" y2="757.217" style="stroke:#444;stroke-width:1.563;"/><line x1="251.368" y1="757.217" x2="631.734" y2="757.217" style="stroke:#444;stroke-width:1.563;"/><line x1="631.734" y1="757.217" x2="631.734" y2="780.655" style="stroke:#444;stroke-width:1.563;"/><polygon points="625.484,765.03,631.734,780.655,637.984,765.03,631.734,771.28" fill="#444" style="stroke:#444;stroke-width:1.563;stroke-linejoin:miter;stroke-miterlimit:10;"/><line x1="631.734" y1="838.922" x2="631.734" y2="851.195" style="stroke:#444;stroke-width:1.563;"/><line x1="631.734" y1="851.195" x2="251.368" y2="851.195" style="stroke:#444;stroke-width:1.563;"/><line x1="251.368" y1="851.195" x2="251.368" y2="874.632" style="stroke:#444;stroke-width:1.563;"/><polygon points="245.118,859.007,251.368,874.632,257.618,859.007,251.368,865.257" fill="#444" style="stroke:#444;stroke-width:1.563;stroke-linejoin:miter;stroke-miterlimit:10;"/><line x1="251.368" y1="932.899" x2="251.368" y2="940.712" style="stroke:#444;stroke-width:1.563;"/><line x1="251.368" y1="940.712" x2="631.734" y2="940.712" style="stroke:#444;stroke-width:1.563;"/><line x1="631.734" y1="940.712" x2="631.734" y2="964.149" style="stroke:#444;stroke-width:1.563;"/><polygon points="625.484,948.524,631.734,964.149,637.984,948.524,631.734,954.774" fill="#444" style="stroke:#444;stroke-width:1.563;stroke-linejoin:miter;stroke-miterlimit:10;"/><line x1="631.734" y1="1022.417" x2="631.734" y2="1038.042" style="stroke:#444;stroke-width:1.563;"/><line x1="631.734" y1="1038.042" x2="826.898" y2="1038.042" style="stroke:#444;stroke-width:1.563;"/><line x1="826.898" y1="616.875" x2="826.898" y2="1038.042" style="stroke:#444;stroke-width:1.563;"/><line x1="826.898" y1="616.875" x2="344.797" y2="616.875" style="stroke:#444;stroke-width:1.563;"/><polygon points="360.422,610.625,344.797,616.875,360.422,623.125,354.172,616.875" fill="#444" style="stroke:#444;stroke-width:1.563;stroke-linejoin:miter;stroke-miterlimit:10;"/><line x1="631.734" y1="566.875" x2="631.734" y2="574.687" style="stroke:#444;stroke-width:1.563;"/><line x1="631.734" y1="574.687" x2="251.368" y2="574.687" style="stroke:#444;stroke-width:1.563;"/><line x1="251.368" y1="574.687" x2="251.368" y2="598.125" style="stroke:#444;stroke-width:1.563;"/><polygon points="245.118,582.5,251.368,598.125,257.618,582.5,251.368,588.75" fill="#444" style="stroke:#444;stroke-width:1.563;stroke-linejoin:miter;stroke-miterlimit:10;"/><line x1="251.368" y1="1331.593" x2="251.368" y2="1339.406" style="stroke:#444;stroke-width:1.563;"/><line x1="251.368" y1="1339.406" x2="631.734" y2="1339.406" style="stroke:#444;stroke-width:1.563;"/><line x1="631.734" y1="1339.406" x2="631.734" y2="1362.843" style="stroke:#444;stroke-width:1.563;"/><polygon points="625.484,1347.218,631.734,1362.843,637.984,1347.218,631.734,1353.468" fill="#444" style="stroke:#444;stroke-width:1.563;stroke-linejoin:miter;stroke-miterlimit:10;"/><line x1="631.734" y1="1421.111" x2="631.734" y2="1428.923" style="stroke:#444;stroke-width:1.563;"/><line x1="631.734" y1="1428.923" x2="251.368" y2="1428.923" style="stroke:#444;stroke-width:1.563;"/><line x1="251.368" y1="1428.923" x2="251.368" y2="1452.361" style="stroke:#444;stroke-width:1.563;"/><polygon points="245.118,1436.736,251.368,1452.361,257.618,1436.736,251.368,1442.986" fill="#444" style="stroke:#444;stroke-width:1.563;stroke-linejoin:miter;stroke-miterlimit:10;"/><line x1="251.368" y1="1489.861" x2="251.368" y2="1517.204" style="stroke:#444;stroke-width:1.563;"/><line x1="251.368" y1="1517.204" x2="631.734" y2="1517.204" style="stroke:#444;stroke-width:1.563;"/><line x1="631.734" y1="1517.204" x2="631.734" y2="1544.548" style="stroke:#444;stroke-width:1.563;"/><polygon points="625.484,1528.923,631.734,1544.548,637.984,1528.923,631.734,1535.173" fill="#444" style="stroke:#444;stroke-width:1.563;stroke-linejoin:miter;stroke-miterlimit:10;"/><text x="219.43" y="48.111" fill="#000" font-size="20.313" textLength="35.299" font-weight="700" font-family="'Leelawadee UI'">ช่าง</text><text x="608.683" y="48.111" fill="#000" font-size="20.313" textLength="42.976" font-weight="700" font-family="'Leelawadee UI'">ระบบ</text><?plantuml-src fLLDQzj04BthLsnrQNtffJVxnvJG26fmdH0hb88FLHAGa_PefyWnRHrX0Z66n4tRtN-pFoKpRxNIobhHDWLZHhlpyUQzsTtdGgj4ouMMcPRVjTng-LLBMddGSW8Zns_P5VZQuckgvG-jFYBe0VyfjiZuf1N5RIX2onCOj7M1HN98nGijlsbvZ-L4gy-yoPyKkjPo1PlgVD7o9mM9LvtWMN_uPd2y7udNe_Z387hPFtut28AnctKSZEAzepZeQdN6wDGvO5AgUOMQ-vnWAmNscPQ_0T21hqu1OqcPUvoDtAxGuXG9oUUwJ2X2RrmObEWHdxFDOIbARi4CeRmfREF3dQI0Fi5MnkMvgd8A4pjtyD_Od5DqXNLsKu2RM0bgSY0XEKyPTqbEqK3OOq9pvA7L-RXgVbNqmkKeuQsMbrRhky97KPQCqoOy5uM8gLiy51LGLmSUFCMsizZRrVRzs_uWui6PmS6CL0vZWuHdnUnmo1fR49RNMP6Ew8zyuPr0Y3eddeo4d4z4RcENXT164kv_3LrbZxBjSCZfdy1YAv1_e11ON1A1fNau6WIQ6knpKr6JM57dyBsg7_EPiSF_OA1MuMzdojDbDDotqsBLz-b-51r6Ut5TVgSZHd0BpLDGMb62cbsiPEYnF7HhBqRXq26HTElE32Lp3d1pcCjxv1HjdhSmpBbo23P1ZGqsdJk6xHoBbrRQpBcUJvpXfcvM7c8DOw8yYhiXBINQJsCbZoUm8uO7CPVnxJLlAZRC4qA4_OAa2s0g7onNtEQ5wTUkzxGxi7MEX3tPrs0aWt5lBj_k7u-qWzlkikpcQRBlYdc6YgtcH2oWxIW-E7m4?></g></svg>